{"title":"Cars 2006 DVDRip Xvid LKRG","uid":6504425,"size":1439757564,"categoryP":"video","categoryS":"movies","magnet":"?xt=urn:btih:a6ccbc4c94223a7f8ccb17ff5152ee1037ef1864&amp;dn=Cars+2006+DVDRip+Xvid+LKRG&amp;tr=udp%3A%2F%2Ftracker.openbittorrent.com%3A80&amp;tr=udp%3A%2F%2Fopen.demonii.com%3A1337&amp;tr=udp%3A%2F%2Ftracker.coppersurfer.tk%3A6969&amp;tr=udp%3A%2F%2Fexodus.desync.com%3A6969","seeders":0,"leechers":1,"uploader":".BONE.","files":2,"time":1309372174,"description":"PLOT\n\nA hot-shot race-car named Lightning McQueen gets waylaid in Radiator Springs, where he finds\nthe true meaning of friendship and family.\n &lt;a href=&quot;\nhttp://www.imdb.com/title/tt0317219/&quot; rel=&quot;nofollow&quot; target=&quot;_NEW&quot;&gt;\nhttp://www.imdb.com/title/tt0317219/&lt;/a&gt;\n\nEncoded By .......: BigPerm1828\nRuntime ..........: 1h 56mn\nFile Size ........: 1.34 GB\nResolution .......: 704x396\nIMDb URL .........: http://www.imdb.com/title/tt0317219/\nGenre ............: Animation,Adventure,Comedy,Family,Sport\nLanguage .........: English\nVideo\nID : 0\nFormat : MPEG-4 Visual\nFormat profile : Advanced Simple@L5\nFormat settings, BVOP : Yes\nFormat settings, QPel : No\nFormat settings, GMC : No warppoints\nFormat settings, Matrix : Default (H.263)\nCodec ID : XVID\nCodec ID/Hint : XviD\nDuration : 1h 56mn\nBit rate : 1 199 Kbps\nWidth : 704 pixels\nHeight : 396 pixels\nDisplay aspect ratio : 16:9\nFrame rate : 23.976 fps\nColor space : YUV\nChroma subsampling : 4:2:0\nBit depth : 8 bits\nScan type : Progressive\nCompression mode : Lossy\nBits/(Pixel*Frame) : 0.179\nStream size : 996 MiB (73%)\nWriting library : XviD 1.2.1 (UTC 2008-12-04)\n\nAudio\nID : 1\nFormat : AC-3\nFormat/Info : Audio Coding 3\nMode extension : CM (complete main)\nCodec ID : 2000\nDuration : 1h 56mn\nBit rate mode : Constant\nBit rate : 448 Kbps\nChannel(s) : 6 channels\nChannel positions : Front: L C R, Side: L R, LFE\nSampling rate : 48.0 KHz\nBit depth : 16 bits\nCompression mode : Lossy\nVideo delay : 42ms\nStream size : 372 MiB (27%)\nAlignment : Split accross interleaves\nInterleave, duration : 500 ms (11.99 video frames)\nInterleave, preload duration : 500 ms\n &lt;a href=&quot;\nhttp://leetleech.org/images/22971662093619682661.png&quot; rel=&quot;nofollow&quot; target=&quot;_NEW&quot;&gt;\nhttp://leetleech.org/images/22971662093619682661.png&lt;/a&gt;\n &lt;a href=&quot;\nhttp://leetleech.org/images/50517323255141666707.png&quot; rel=&quot;nofollow&quot; target=&quot;_NEW&quot;&gt;\nhttp://leetleech.org/images/50517323255141666707.png&lt;/a&gt;\n &lt;a href=&quot;\nhttp://leetleech.org/images/14215969932339764601.png&quot; rel=&quot;nofollow&quot; target=&quot;_NEW&quot;&gt;\nhttp://leetleech.org/images/14215969932339764601.png&lt;/a&gt;\n &lt;a href=&quot;\nhttp://leetleech.org/images/15500429282139867432.png&quot; rel=&quot;nofollow&quot; target=&quot;_NEW&quot;&gt;\nhttp://leetleech.org/images/15500429282139867432.png&lt;/a&gt;","torrent":{"xt":"urn:btih:a6ccbc4c94223a7f8ccb17ff5152ee1037ef1864","amp;dn":"Cars+2006+DVDRip+Xvid+LKRG","amp;tr":["udp%3A%2F%2Ftracker.openbittorrent.com%3A80","udp%3A%2F%2Fopen.demonii.com%3A1337","udp%3A%2F%2Ftracker.coppersurfer.tk%3A6969","udp%3A%2F%2Fexodus.desync.com%3A6969"],"infoHash":"a6ccbc4c94223a7f8ccb17ff5152ee1037ef1864","infoHashBuffer":{"type":"Buffer","data":[166,204,188,76,148,34,58,127,140,203,23,255,81,82,238,16,55,239,24,100]},"announce":[],"urlList":[]}}